<?xml version="1.0" encoding="utf-8"?>
<!-- Generator: Adobe Illustrator 19.0.0, SVG Export Plug-In . SVG Version: 6.00 Build 0)  -->
<svg version="1.1" id="Camada_1" xmlns="http://www.w3.org/2000/svg" xmlns:xlink="http://www.w3.org/1999/xlink" x="0px" y="0px"
	 viewBox="-151 245 308 303" style="enable-background:new -151 245 308 303;" xml:space="preserve">
<style type="text/css">
	.st0{fill:#FFFFFF;}
	.st1{fill:#007AFF;}
	.st2{fill:none;}
</style>
<g>
	<circle class="st0" cx="2.8" cy="398" r="148"/>
	<g>
		<path class="st1" d="M-47.7,527.4c-71.3-27.8-106.7-108.5-79-179.8s108.5-106.7,179.8-79s106.7,108.5,79,179.8
			C104.3,519.8,23.7,555.3-47.7,527.4z M52.5,270.5c-70.4-27.4-149.8,7.5-177.2,77.8c-27.4,70.4,7.5,149.8,77.8,177.2
			c70.4,27.4,149.8-7.5,177.2-77.8C157.7,377.3,122.8,297.9,52.5,270.5z"/>
	</g>
	<g>
		<path class="st1" d="M5.8,394.6c1.5-1.1,3-2,4.5-2.9c7.3-4.8,14.4-9.7,21.8-14.5c2.3-1.5,4.6-3,6.9-4.7c0.3-0.2,0.8-0.2,1.3-0.1
			c11.1,4.3,21.9,8.6,32.9,12.8c0.7,0.2,0.9,0.6,0.6,1.4c-2.7,6.9-5.4,14-8.1,20.8c-0.2,0.7-0.6,0.8-1.3,0.5
			c-1.9-0.7-3.6-1.4-5.5-2.2c-0.2-0.1-0.5-0.2-0.6-0.2c-6.5,16.9-13.1,33.7-19.8,50.6c0.2,0.1,0.3,0.1,0.6,0.2
			c1.9,0.7,3.7,1.5,5.6,2.2c0.7,0.2,0.8,0.6,0.6,1.3c-2.7,6.9-5.4,14-8.1,20.8c-0.2,0.7-0.6,0.9-1.4,0.6c-9.5-3.7-19-7.4-28.5-11.1
			c-0.8-0.3-0.9-0.6-0.6-1.4c3.1-7.8,6.1-15.5,9.1-23.4c0-0.1,0.1-0.2,0.2-0.5c-0.2-0.1-0.3-0.1-0.6-0.2C8.3,441.7,1,438.9-6.3,436
			c-0.8-0.3-1.3-0.8-1.3-1.5c-0.2-1.4-0.6-2.5-1-3.9c-1.3,0.8-2.5,1.6-3.7,2.6c-6.4,4.2-12.6,8.3-19,12.7c-2.8,1.8-5.4,3.6-8.1,5.4
			c-0.3,0.2-0.7,0.4-1.2,0.1c-7.6-3-15.1-5.9-22.7-8.8c-0.3-0.1-0.7-0.2-0.7-0.7s0.2-0.6,0.6-0.8c7.7-5.2,15.5-10.3,23.2-15.5
			c8.6-5.7,17.2-11.5,25.8-17.1c0.1,0,0.1-0.1,0.2-0.2c-2.1-8.8-4.4-17.6-6.5-26.4l-0.1,0c-0.1,0.2-0.1,0.2-0.2,0.5
			c-4.6,11.8-9.1,23.4-13.7,35.3c-0.7,1.7-1.4,3.5-2.1,5.4c-0.3,0.9-1.2,1.3-2.1,0.9c-9.4-3.7-18.8-7.3-28.3-11.1
			c-1-0.5-1.3-1.2-1.1-2.1c2.9-7.2,5.6-14.4,8.5-21.5c0.3-0.9,1.2-1.3,2.2-0.9c1.6,0.7,3.5,1.4,5.2,2.1
			c6.3-16.1,12.6-32.1,18.9-48.3c-0.2-0.1-0.5-0.2-0.7-0.2c-1.5-0.6-2.9-1.1-4.4-1.7c-1.2-0.5-1.4-1-0.9-2.2
			c2.7-7.1,5.6-14.3,8.3-21.4c0.5-1,1.2-1.4,2.2-0.9c9.4,3.7,18.8,7.3,28.2,11c1.2,0.5,1.4,1.2,0.9,2.2
			C-5,342.1-10.2,355.5-15.5,369c-0.1,0.2-0.1,0.2-0.2,0.6c0.2-0.1,0.3-0.1,0.3-0.2c7.2-4.8,14.3-9.6,21.6-14.4
			c7.9-5.3,15.7-10.4,23.5-15.7c0.6-0.4,1.2-0.5,1.9-0.2c7.4,2.9,15,5.8,22.5,8.8c0.6,0.2,1,0.6,1.2,1.3c0,0.6-0.2,1.2-0.8,1.5
			c-7.7,5-15.4,10.3-23,15.3c-8.4,5.6-17,11.2-25.4,16.9c-0.7,0.4-1.3,0.8-1.8,1.2c-0.1,0-0.2,0.5-0.2,0.6
			C4.2,387.7,5.1,391,5.8,394.6C5.8,394.5,5.7,394.6,5.8,394.6z M32.2,403.5c-0.2,0.1-0.3,0.1-0.3,0.2c-6.6,4.5-13.4,8.9-20.1,13.4
			c-0.2,0.2-0.3,0.2-0.2,0.6c1.9,7.8,3.9,15.8,5.7,23.6c0,0.1,0,0.2,0,0.3l0.1,0C22.4,428.9,27.3,416.2,32.2,403.5z"/>
		<g>
			<path class="st1" d="M52.2,282.6l2.1,1l-3.7,7.7l0.2,0.1l11.7-3.8l3,1.5L53,293l4.5,14l-3.1-1.5l-4.1-13.1l-0.2-0.1l-4.4,9.1
				l-2.1-1L52.2,282.6z"/>
			<path class="st1" d="M69.2,312.3c-1.2,0.4-2.3,0.5-3.2,0.3c-0.9-0.2-2-0.7-3-1.3c-0.8-0.6-1.5-1.2-2-2c-0.5-0.8-0.7-1.5-0.9-2.4
				c-0.1-0.8,0-1.6,0.1-2.4c0.2-0.8,0.6-1.7,1.1-2.4c0.6-0.8,1.2-1.5,2-2c0.7-0.6,1.5-0.8,2.3-1.1c0.8-0.2,1.7-0.1,2.6,0.1
				c0.8,0.2,1.7,0.6,2.4,1s1.3,1.2,1.8,1.8s0.8,1.4,0.9,2.2c0.1,0.8,0,1.6-0.1,2.4c-0.2,0.8-0.7,1.6-1.3,2.6l-0.5,0.6l-8.6-5.9
				c-0.3,0.5-0.5,1-0.6,1.5c-0.1,0.6-0.1,1,0,1.6c0.1,0.6,0.4,1,0.6,1.4c0.4,0.5,0.7,0.9,1.2,1.2c0.8,0.6,1.5,0.8,2.3,0.9
				c0.7,0.1,1.5,0,2.2-0.2L69.2,312.3z M70.7,306.8c0.6-0.9,0.8-1.9,0.6-2.8c-0.1-0.9-0.7-1.7-1.8-2.4c-0.9-0.7-2-0.9-2.9-0.8
				s-1.9,0.6-2.7,1.4L70.7,306.8z"/>
			<path class="st1" d="M77.1,308.8c0.3-0.5,0.7-0.8,1.2-1.3c0.3-0.4,0.6-0.8,0.9-1.1l1.5,1.4c-0.2,0.2-0.5,0.5-0.7,0.7
				c-0.2,0.3-0.5,0.6-0.7,0.8l0.1,0c0.3-0.1,0.7-0.2,1.2-0.2c0.5,0,0.8,0,1.2,0.1c0.3,0,0.8,0.2,1.3,0.3c0.5,0.1,0.8,0.6,1.2,0.9
				c0.6,0.6,1.1,1.2,1.4,1.7c0.2,0.6,0.5,1.2,0.5,1.9c0,0.6-0.2,1.3-0.5,1.9c-0.3,0.6-0.7,1.3-1.1,1.7l-5.4,6l-1.6-1.4l5.2-5.7
				c0.7-0.8,1.2-1.6,1.3-2.3c0.1-0.8-0.4-1.5-1.1-2.2c-0.5-0.5-1-0.8-1.6-0.9c-0.6-0.2-1-0.2-1.6-0.1c-0.6,0.1-1,0.4-1.6,0.7
				s-1,0.8-1.5,1.3l-4.3,4.7l-1.6-1.4L77.1,308.8z"/>
			<path class="st1" d="M81.7,324.4l12.1-0.4l-4.8-5.5l1.4-1.2l6.7,7.7l-1.3,1.1l-12.2,0.3l5,6l-1.4,1.2l-6.9-8.1L81.7,324.4z"/>
			<path class="st1" d="M99.5,328.1l1.3,1.7l-10.5,7.6l-1.3-1.7L99.5,328.1z M103.2,324.7c0.3-0.2,0.7-0.4,1.2-0.2
				c0.3,0,0.8,0.3,1,0.6c0.2,0.3,0.4,0.7,0.2,1.3c-0.1,0.5-0.3,0.8-0.6,1c-0.3,0.2-0.8,0.5-1.2,0.2c-0.3,0-0.7-0.2-1-0.7
				c-0.2-0.3-0.5-0.8-0.2-1.2C102.6,325.4,102.9,325.1,103.2,324.7z"/>
			<path class="st1" d="M100.2,349.5c-1.3-0.2-2.2-0.6-3.1-1.3c-0.8-0.6-1.5-1.4-2.1-2.4c-0.5-0.9-0.8-1.7-0.9-2.7
				c-0.1-0.8,0-1.7,0.2-2.4c0.2-0.8,0.7-1.5,1.1-2.2c0.6-0.7,1.3-1.3,2.1-1.8c0.9-0.5,1.7-0.8,2.7-0.9s1.7-0.1,2.7,0.1
				c0.8,0.2,1.6,0.6,2.2,1c0.7,0.6,1.3,1.2,1.8,2c0.5,0.8,0.7,1.6,0.8,2.3c0.1,0.8,0.1,1.6-0.2,2.3c-0.2,0.7-0.7,1.5-1.3,2.2
				c-0.6,0.7-1.4,1.3-2.2,1.8l-0.7,0.4l-5.3-9.1c-0.5,0.4-0.9,0.7-1.2,1.2c-0.3,0.5-0.6,0.9-0.7,1.5c-0.1,0.6-0.2,1-0.1,1.6
				c0.1,0.6,0.2,1,0.5,1.5c0.5,0.8,0.9,1.4,1.6,1.8c0.6,0.5,1.3,0.6,2.2,0.7L100.2,349.5z M103.9,345.1c0.9-0.6,1.5-1.3,1.8-2.2
				c0.3-0.9,0-2-0.6-3s-1.4-1.7-2.3-2s-2-0.2-2.9,0.1L103.9,345.1z"/>
			<path class="st1" d="M123.4,360.8l0.6,2.1l-16.3,13.8l-0.8-2.5l4-3.3l-2.8-9.4l-5.2-0.5l-0.7-2.5L123.4,360.8z M120.9,362.7
				L120.9,362.7l-10.5-1.1l2.4,7.6L120.9,362.7z"/>
			<path class="st1" d="M118.8,385.9c0.5-0.5,0.8-1,0.9-1.6c0.1-0.6,0.1-1.2,0.1-1.9c-0.1-0.8-0.2-1.4-0.6-1.7
				c-0.4-0.6-0.8-0.9-1.3-1.2c-0.5-0.2-1-0.5-1.6-0.6c-0.6-0.1-1.2-0.1-1.9,0c-0.7,0.1-1.3,0.4-1.7,0.6c-0.5,0.2-0.9,0.7-1.4,1.1
				c-0.3,0.5-0.7,0.9-0.8,1.5c-0.1,0.6-0.1,1.2-0.1,1.9c0.1,1.4,0.9,2.4,2.1,3l-1.3,1.9c-0.8-0.6-1.5-1.2-1.9-2
				c-0.5-0.8-0.8-1.6-0.9-2.7c-0.1-0.9-0.1-1.9,0.1-2.8c0.2-0.8,0.6-1.6,1.1-2.3c0.5-0.7,1.2-1.2,2-1.6s1.6-0.8,2.7-0.9
				s1.9-0.1,2.8,0.1c0.8,0.2,1.6,0.6,2.3,1c0.7,0.5,1.3,1.2,1.8,1.8c0.5,0.8,0.8,1.6,0.9,2.7c0.1,0.9,0.1,1.9-0.1,2.8
				s-0.6,1.7-1.1,2.6L118.8,385.9z"/>
			<path class="st1" d="M120.8,390.4c0.7,0.7,1.2,1.4,1.5,2.3c0.4,0.9,0.5,1.9,0.6,2.8c0,2-0.3,3.4-1.3,4.2
				c-0.8,0.9-2.3,1.4-4.1,1.4l-5.6,0.2c-0.5,0-0.7,0-1.2,0c-0.5,0-0.8,0.1-1,0.2l0-2.1c0.3-0.1,0.7-0.1,0.9-0.1c0.3-0.1,0.7,0,0.9,0
				l0-0.1c-0.7-0.3-1.3-1-1.8-1.7s-0.7-1.6-0.7-2.5c0-0.6,0.1-1.3,0.2-1.9c0.1-0.6,0.5-1,0.7-1.5c0.3-0.5,0.7-0.8,1.2-1.1
				s1-0.5,1.7-0.5c1,0,2,0.2,2.6,0.8c0.6,0.6,1.1,1.3,1.5,2c0.2,0.8,0.6,1.7,0.6,2.7c0.1,0.9,0.2,1.9,0.2,2.7l0,0.8l0.5,0
				c0.9,0,1.6-0.2,2.1-0.9c0.5-0.6,0.7-1.4,0.7-2.4c0-0.7-0.1-1.4-0.4-2.1c-0.2-0.7-0.6-1.3-1.2-1.7L120.8,390.4z M116,396.8
				c-0.1-1.4-0.2-2.4-0.6-3.4c-0.5-0.8-1.1-1.3-2-1.1c-0.8,0-1.4,0.2-1.6,0.9c-0.3,0.6-0.5,1.3-0.5,2.1c0,0.6,0.1,1.2,0.4,1.6
				c0.2,0.5,0.5,0.8,0.8,1.2c0.4,0.3,0.8,0.6,1.3,0.7c0.5,0.2,0.9,0.2,1.5,0.3l0.8,0L116,396.8z"/>
			<path class="st1" d="M110.9,415.7L110.9,415.7c-0.7-0.6-1.3-1.3-1.6-2.2c-0.5-1-0.6-2-0.4-3.1c0.1-0.8,0.3-1.7,0.8-2.4
				c0.3-0.8,0.9-1.4,1.6-1.9c0.7-0.6,1.5-0.8,2.3-1.2c0.9-0.2,1.7-0.4,2.7-0.1c1,0.1,1.9,0.5,2.7,0.8c0.8,0.3,1.5,0.9,2,1.6
				c0.6,0.6,0.9,1.4,1.2,2.3s0.2,1.9,0.2,2.9c-0.1,1-0.3,1.7-0.9,2.6c-0.5,0.7-1.2,1.3-1.8,1.9l0,0.1l9.8,1.1l-0.2,2.2l-20.8-2.4
				l0.2-2.2L110.9,415.7z M114.9,416.1c0.7,0.1,1.3,0,1.9-0.1c0.6-0.2,1.2-0.4,1.6-0.8c0.5-0.4,0.9-0.8,1.3-1.4
				c0.3-0.5,0.6-1.2,0.6-1.9s0-1.3-0.1-1.9c-0.2-0.6-0.5-1.2-0.8-1.5c-0.5-0.5-0.8-0.8-1.4-1c-0.5-0.3-1.2-0.5-1.9-0.6
				s-1.3,0-1.9,0.1c-0.6,0.2-1.2,0.4-1.6,0.8c-0.5,0.4-0.9,0.8-1.3,1.4c-0.3,0.5-0.6,1.2-0.6,1.9c0,0.7,0,1.3,0.1,1.9
				c0.2,0.6,0.5,1.2,0.8,1.5c0.4,0.5,0.8,0.8,1.4,1C113.6,415.9,114.2,416,114.9,416.1z"/>
			<path class="st1" d="M106.9,432.5c-0.7-1-1.3-2-1.4-3c-0.1-0.9-0.1-2.1,0.2-3.3c0.3-1,0.7-1.7,1.1-2.6c0.6-0.7,1.2-1.3,2-1.6
				c0.8-0.5,1.6-0.6,2.4-0.7c0.8-0.1,1.7,0,2.7,0.2c0.9,0.2,1.9,0.6,2.6,1.1c0.7,0.5,1.3,1.2,1.8,1.8c0.5,0.7,0.7,1.5,0.8,2.3
				s0,1.7-0.2,2.7c-0.2,0.8-0.6,1.6-1.1,2.3c-0.5,0.6-1,1.2-1.8,1.5c-0.7,0.4-1.5,0.7-2.4,0.7c-0.8,0.1-1.9,0-2.9-0.3l-0.7-0.1
				l2.7-10.1c-0.6-0.1-1-0.1-1.6,0s-1,0.4-1.5,0.5c-0.5,0.2-0.8,0.6-1.3,1.1c-0.3,0.5-0.6,0.9-0.8,1.4c-0.2,0.9-0.2,1.7-0.1,2.4
				s0.5,1.4,0.9,2.1L106.9,432.5z M112.5,432.1c1.2,0.2,2,0.1,2.9-0.4c0.8-0.5,1.4-1.3,1.7-2.6c0.3-1.2,0.2-2.2-0.3-3
				s-1.2-1.6-2.2-2L112.5,432.1z"/>
			<path class="st1" d="M112.9,439.1c0.6,0.2,1,0.5,1.5,0.6c0.5,0.2,0.9,0.3,1.3,0.6l-0.8,1.9c-0.3-0.1-0.6-0.2-0.9-0.3
				s-0.6-0.2-0.9-0.3l0,0.1c0.2,0.2,0.4,0.6,0.6,0.9c0.1,0.3,0.2,0.8,0.4,1.3c0,0.5,0,0.9,0,1.3c-0.1,0.5-0.2,0.9-0.5,1.5
				s-0.6,1-0.9,1.5c-0.3,0.4-0.8,0.6-1,0.8c-0.3,0.1-0.7,0.4-1,0.4c-0.3,0.1-0.6,0-0.8,0.1c0.5,0.8,0.8,1.5,0.9,2.3
				c0.1,0.8,0,1.6-0.4,2.4s-0.8,1.5-1.3,2c-0.5,0.5-1,0.8-1.6,0.9c-0.6,0.2-1.2,0.1-2,0c-0.7-0.1-1.4-0.3-2.2-0.7l-7.2-3.3l0.9-2
				l7,3.2c0.5,0.2,0.8,0.3,1.3,0.3c0.5,0.1,0.8,0.1,1.2,0.1c0.5,0,0.8-0.2,1.2-0.6c0.3-0.2,0.7-0.7,0.9-1.3c0.2-0.5,0.3-0.8,0.3-1.3
				c0-0.5-0.1-0.8-0.2-1.3c-0.1-0.3-0.5-0.8-0.8-1.2c-0.4-0.3-0.8-0.6-1.3-0.9l-6.9-3.2l0.9-2l6.6,3.1c1.3,0.6,2.3,0.9,3,0.8
				c0.8-0.1,1.3-0.6,1.6-1.3c0.2-0.6,0.5-1.3,0.3-1.7c0-0.5-0.2-1-0.4-1.6c-0.2-0.5-0.7-0.9-1.1-1.4c-0.5-0.3-1-0.7-1.7-1l-5.7-2.6
				l0.9-2L112.9,439.1z"/>
			<path class="st1" d="M88.5,457.7c-0.4-0.6-0.7-0.9-0.8-1.5c-0.2-0.3-0.4-0.8-0.5-1.3s0-0.9,0-1.4c0.1-0.5,0.3-0.9,0.7-1.5
				c0.2-0.2,0.5-0.6,0.6-0.8c0.2-0.2,0.5-0.5,0.8-0.6l1.4,1.3c-0.1,0.1-0.3,0.2-0.5,0.5c-0.1,0.1-0.3,0.4-0.5,0.6
				c-0.5,0.6-0.6,1.2-0.5,1.6s0.5,1,0.8,1.5l1.5,2.1l13.8,2.9l-1.4,2.1l-10.7-2.5l0,0.1l6.2,9l-1.4,1.9L88.5,457.7z"/>
			<path class="st1" d="M87.4,476.2l-4.7,4.9l-1.4-1.4l4.7-4.9L87.4,476.2z"/>
			<path class="st1" d="M80.6,498.8l-2,1.3l-4.8-7.1l-0.2,0.2l-2.5,12.1l-2.8,1.9l2.8-12.9l-14.5-2.9l2.8-2l13.4,2.8L73,492
				l-5.7-8.2l2-1.3L80.6,498.8z"/>
			<path class="st1" d="M46.5,499.1c0.2-1.3,0.7-2.3,1.4-3c0.6-0.8,1.5-1.5,2.5-2c0.9-0.5,1.9-0.7,2.8-0.7s1.7,0.1,2.6,0.3
				c0.8,0.3,1.4,0.8,2.1,1.4c0.7,0.6,1.2,1.4,1.6,2.2c0.5,0.9,0.7,1.9,0.8,2.7c0,0.9,0,1.7-0.3,2.6c-0.2,0.8-0.7,1.5-1.3,2.2
				c-0.6,0.7-1.3,1.3-2.2,1.6c-0.8,0.5-1.6,0.6-2.4,0.7s-1.6,0-2.3-0.3c-0.7-0.3-1.4-0.8-2.1-1.4c-0.7-0.7-1.2-1.4-1.6-2.4l-0.2-0.6
				l9.4-4.7c-0.4-0.6-0.7-0.9-1.1-1.3c-0.5-0.3-0.8-0.7-1.4-0.8c-0.6-0.2-1-0.3-1.5-0.2c-0.5,0-1,0.2-1.6,0.4
				c-0.8,0.4-1.5,0.9-2,1.5c-0.5,0.6-0.7,1.3-0.9,2.1L46.5,499.1z M50.4,503c0.5,1,1.2,1.6,2.1,1.8c0.9,0.2,1.9,0.1,3-0.4
				c1-0.5,1.8-1.3,2.2-2.2c0.3-0.9,0.3-1.9,0-2.9L50.4,503z"/>
			<path class="st1" d="M45.6,507.5c0.2,0.6,0.4,1,0.6,1.6c0.2,0.5,0.4,0.9,0.5,1.3l-2,0.7c-0.1-0.3-0.2-0.7-0.4-0.9
				c-0.1-0.3-0.2-0.7-0.4-1l0,0c0,0.3-0.1,0.7-0.3,1c-0.1,0.3-0.3,0.7-0.6,1c-0.2,0.3-0.7,0.7-1,0.9c-0.3,0.2-0.8,0.5-1.4,0.7
				c-0.8,0.2-1.6,0.4-2.2,0.4c-0.7-0.1-1.3-0.2-1.9-0.6c-0.5-0.3-1-0.7-1.4-1.3s-0.7-1.2-0.9-2l-2.6-7.6l2-0.7l2.5,7.4
				c0.4,1,0.8,1.7,1.5,2.2c0.6,0.5,1.5,0.5,2.4,0.1c0.7-0.2,1.3-0.6,1.6-0.9c0.3-0.4,0.7-0.8,0.8-1.4c0.2-0.6,0.2-1.2,0.2-1.7
				c0-0.6-0.2-1.3-0.5-2l-2-6l2-0.7L45.6,507.5z"/>
			<path class="st1" d="M29.8,504l-5.6,10.8l7.2-1.6l0.4,1.7l-9.9,2l-0.2-1.6l5.5-10.8l-7.7,1.6l-0.4-1.7l10.4-2.2L29.8,504z"/>
			<path class="st1" d="M17.8,517.7l-2.2,0.2l-1.5-12.9l2.2-0.2L17.8,517.7z M19,522.7c0,0.5-0.1,0.8-0.3,1.2
				c-0.2,0.3-0.6,0.6-1,0.6c-0.5,0-0.8,0-1.2-0.3c-0.3-0.2-0.6-0.6-0.6-1s0-0.9,0.3-1.2c0.2-0.3,0.6-0.5,1-0.6c0.5,0,0.9,0,1.2,0.3
				C18.6,521.9,18.9,522.2,19,522.7z"/>
			<path class="st1" d="M-1.2,508.1c0.8-1,1.6-1.8,2.5-2.1c0.9-0.5,2-0.7,3.2-0.7c1,0,2,0.1,2.8,0.4c0.8,0.3,1.5,0.8,2.1,1.4
				c0.6,0.6,1.1,1.3,1.3,2.2c0.2,0.8,0.5,1.7,0.5,2.7c0,1-0.1,1.9-0.4,2.8c-0.3,0.9-0.8,1.5-1.4,2.2c-0.6,0.6-1.3,1.2-2.1,1.4
				c-0.8,0.2-1.7,0.6-2.7,0.5c-0.9,0-1.7-0.2-2.4-0.4c-0.8-0.3-1.4-0.8-2-1.3c-0.6-0.6-1.1-1.3-1.3-2.2c-0.2-0.8-0.5-1.9-0.5-2.9
				l0-0.7l10.4-0.2c-0.1-0.6-0.2-1-0.4-1.6c-0.2-0.5-0.6-0.9-0.9-1.3c-0.4-0.3-0.8-0.7-1.3-0.9c-0.6-0.2-1-0.3-1.6-0.3
				c-0.9,0-1.7,0.2-2.3,0.5c-0.7,0.4-1.3,0.8-1.7,1.5L-1.2,508.1z M0.7,513.3c0,1.2,0.5,2,1.1,2.7s1.6,0.9,2.8,0.9
				c1.3,0,2.2-0.4,2.9-1.1c0.8-0.6,1.2-1.6,1.3-2.7L0.7,513.3z"/>
			<path class="st1" d="M-22.4,522.7l-2.2-0.5l-4-21l2.7,0.6l1,5.2l9.6,2.1l3-4.2l2.6,0.6L-22.4,522.7z M-22.8,519.6L-22.8,519.6
				l6.1-8.5l-7.8-1.7L-22.8,519.6z"/>
			<path class="st1" d="M-42,506.3c0.2,0.7,0.6,1.3,1.1,1.6c0.5,0.5,0.9,0.8,1.5,1c0.7,0.2,1.3,0.3,1.9,0.3c0.6,0,1.2-0.1,1.6-0.5
				s0.9-0.7,1.3-1.2s0.7-1,0.9-1.6c0.2-0.6,0.3-1.3,0.3-1.9c0-0.6-0.1-1.2-0.4-1.7c-0.2-0.6-0.5-1-0.9-1.5c-0.5-0.5-0.9-0.8-1.5-1
				c-1.3-0.6-2.6-0.3-3.6,0.4l-0.9-2c0.8-0.5,1.7-0.7,2.7-0.7c0.9,0,1.9,0.1,2.7,0.4c0.9,0.3,1.7,0.8,2.4,1.5
				c0.7,0.6,1.2,1.3,1.5,2.1c0.4,0.7,0.5,1.6,0.6,2.4c0,0.9-0.2,1.7-0.4,2.8c-0.3,0.9-0.8,1.7-1.5,2.4c-0.6,0.7-1.3,1.2-2.1,1.5
				c-0.8,0.5-1.6,0.6-2.4,0.6c-0.9,0-1.9-0.1-2.8-0.4c-0.9-0.3-1.7-0.8-2.4-1.5c-0.7-0.6-1.2-1.4-1.5-2.2L-42,506.3z"/>
			<path class="st1" d="M-46.9,505.9c-0.9,0.2-1.9,0.4-2.9,0.2c-1-0.1-1.9-0.5-2.7-0.9c-1.7-0.9-2.7-2-3-3.1
				c-0.4-1.2-0.1-2.6,0.8-4.3l2.5-4.9c0.1-0.3,0.3-0.7,0.5-1c0.1-0.3,0.2-0.7,0.5-1l1.9,0.9c-0.1,0.2-0.2,0.6-0.3,0.9
				s-0.3,0.6-0.5,0.8l0.1,0c0.7-0.4,1.4-0.6,2.3-0.6c0.8-0.1,1.6,0.1,2.7,0.6c0.6,0.3,1,0.6,1.5,1.2c0.5,0.3,0.8,0.9,1.1,1.3
				c0.2,0.5,0.4,0.9,0.4,1.5c0,0.5-0.1,1-0.5,1.6c-0.5,0.9-1.2,1.6-2,1.8c-0.7,0.4-1.6,0.4-2.4,0.2s-1.7-0.3-2.6-0.7
				c-0.9-0.3-1.6-0.8-2.3-1.1l-0.8-0.3l-0.1,0.3c-0.5,0.8-0.6,1.6-0.2,2.2c0.2,0.7,0.8,1.3,1.8,1.7c0.6,0.3,1.3,0.6,2,0.7
				c0.7,0.1,1.4,0,2.1-0.1L-46.9,505.9z M-50.2,498.5c1.2,0.7,2.3,1,3.1,1c0.9,0,1.5-0.4,2-1.2c0.3-0.7,0.5-1.4,0-2
				c-0.4-0.6-0.8-1-1.6-1.4c-0.6-0.3-1-0.5-1.6-0.6c-0.5,0-1,0-1.4,0.1c-0.5,0.1-0.8,0.4-1.2,0.7c-0.3,0.4-0.7,0.7-0.9,1.2l-0.3,0.8
				L-50.2,498.5z"/>
			<path class="st1" d="M-64.1,484.9L-64.1,484.9c0.8-0.2,1.7-0.5,2.7-0.4c1,0.1,2,0.5,2.9,1.1c0.7,0.5,1.3,1.2,1.8,2
				c0.5,0.8,0.7,1.5,0.8,2.3c0.1,0.8,0,1.6-0.2,2.6c-0.2,0.8-0.6,1.7-1.1,2.6c-0.6,0.8-1.3,1.4-2,1.9c-0.8,0.5-1.5,0.8-2.4,0.9
				c-0.9,0.1-1.7,0.1-2.7-0.1c-0.8-0.2-1.7-0.6-2.6-1.3c-0.8-0.6-1.4-1.3-1.8-2c-0.4-0.7-0.7-1.6-0.7-2.5l-0.1,0l-5.8,7.9l-1.7-1.3
				l12.2-17l1.7,1.3L-64.1,484.9z M-66.5,488.3c-0.5,0.6-0.7,1.2-0.9,1.7c-0.1,0.6-0.2,1.2-0.2,1.7c0.1,0.6,0.2,1.2,0.6,1.6
				c0.4,0.6,0.7,1,1.3,1.4c0.6,0.5,1.2,0.7,1.7,0.8c0.6,0.1,1.2,0.1,1.7,0c0.6-0.1,1.2-0.4,1.6-0.7c0.6-0.4,0.9-0.8,1.4-1.3
				c0.5-0.6,0.7-1.2,0.9-1.7c0.1-0.6,0.2-1.2,0.2-1.7c0-0.6-0.2-1.2-0.6-1.6c-0.4-0.6-0.7-1-1.3-1.4c-0.6-0.5-1.2-0.7-1.7-0.8
				c-0.6-0.1-1.2-0.1-1.7,0c-0.6,0.1-1.2,0.4-1.6,0.7C-65.7,487.3-66.2,487.8-66.5,488.3z"/>
			<path class="st1" d="M-77.1,473.2c1.3-0.2,2.4-0.1,3.3,0.2c0.9,0.3,1.9,0.9,2.8,1.8c0.7,0.7,1.3,1.5,1.5,2.2
				c0.2,0.8,0.5,1.6,0.5,2.6c0,0.8-0.2,1.6-0.6,2.4s-0.9,1.6-1.5,2.3c-0.7,0.7-1.4,1.3-2.3,1.6c-0.8,0.4-1.6,0.6-2.4,0.6
				c-0.8,0-1.6-0.1-2.4-0.4c-0.8-0.3-1.6-0.8-2.3-1.5c-0.7-0.7-1.1-1.4-1.4-2.1c-0.4-0.7-0.5-1.5-0.5-2.3c0-0.8,0.2-1.5,0.6-2.4
				c0.3-0.8,0.9-1.6,1.6-2.4l0.5-0.5l7.6,7.4c0.3-0.5,0.7-0.8,0.8-1.4c0.1-0.6,0.3-1,0.3-1.6c0-0.5-0.1-1-0.4-1.5s-0.6-0.9-0.9-1.4
				c-0.7-0.7-1.4-1-2.1-1.3s-1.4-0.2-2.3-0.2L-77.1,473.2z M-79.3,478.4c-0.7,0.8-1,1.7-1,2.7c0,0.9,0.5,1.9,1.3,2.7
				c0.9,0.8,1.7,1.3,2.8,1.3s2-0.2,2.8-0.9L-79.3,478.4z"/>
			<path class="st1" d="M-85.6,475.3c-0.5,0.4-0.9,0.7-1.3,1.1c-0.5,0.4-0.8,0.6-1.2,0.8l-1.2-1.7c0.2-0.2,0.6-0.4,0.8-0.6
				c0.2-0.2,0.6-0.4,0.9-0.7l0,0c-0.3,0.1-0.7,0-1.2,0c-0.3,0-0.8-0.1-1.3-0.2c-0.5-0.2-0.8-0.3-1.2-0.7c-0.5-0.2-0.7-0.7-1.1-1.2
				c-0.4-0.6-0.7-1-0.8-1.5s-0.1-0.9-0.2-1.3c0-0.3,0.1-0.8,0.2-1c0.1-0.3,0.2-0.6,0.3-0.8c-0.9,0-1.7-0.1-2.4-0.2
				c-0.7-0.2-1.4-0.7-2-1.6c-0.6-0.7-0.8-1.5-1.1-2.1c-0.1-0.7-0.2-1.3,0-1.9c0.1-0.6,0.5-1.2,0.9-1.7c0.5-0.6,1-1.1,1.7-1.5
				l6.4-4.7l1.3,1.7l-6.2,4.6c-0.3,0.2-0.7,0.6-0.9,0.8c-0.3,0.2-0.5,0.7-0.6,1c-0.1,0.3-0.1,0.8-0.1,1.3s0.2,0.9,0.7,1.5
				c0.2,0.3,0.6,0.6,0.9,0.9s0.8,0.3,1.3,0.3c0.5,0.1,0.9,0,1.4-0.1c0.5-0.1,0.9-0.4,1.4-0.7l6.1-4.3l1.3,1.7l-6,4.3
				c-1.2,0.8-1.8,1.6-2.1,2.2c-0.2,0.7-0.1,1.4,0.4,2.1c0.4,0.6,0.8,0.9,1.4,1.3c0.5,0.3,0.9,0.3,1.6,0.5c0.5,0,1.2,0,1.6-0.4
				c0.6-0.2,1.2-0.6,1.9-1.1l5.1-3.7l1.3,1.7L-85.6,475.3z"/>
			<path class="st1" d="M-89.9,444.9c0.6,0,1.2,0,1.6,0c0.5,0,1,0.1,1.4,0.2c0.5,0.2,0.8,0.5,1.2,0.7c0.4,0.3,0.7,0.8,0.9,1.4
				c0.1,0.2,0.2,0.6,0.4,0.8c0.1,0.3,0.1,0.7,0.1,0.9l-1.7,0.6c0-0.2,0-0.5-0.1-0.7c-0.1-0.2-0.2-0.5-0.4-0.7c-0.2-0.6-0.7-1-1.2-1
				c-0.5-0.1-1-0.1-1.9-0.1l-2.6,0.4l-9.3,10.6l-1.2-2.3l7.4-8.1l0,0l-10.8,1.1l-1.1-2.1L-89.9,444.9z"/>
			<path class="st1" d="M-105.5,434.9l-2-6.5l2-0.6l2,6.5L-105.5,434.9z"/>
			<path class="st1" d="M-122,418l-0.2-2.3l8.5-0.9l-0.1-0.3l-9.3-8.1l-0.4-3.2l9.9,8.8l9.6-11.2l0.4,3.4l-8.9,10.3l0.1,0.3l9.9-1
				l0.2,2.3L-122,418z"/>
			<path class="st1" d="M-105.4,387.9c1,0.8,1.5,1.7,2,2.5c0.4,0.9,0.5,2.1,0.5,3.2c-0.1,1-0.2,2-0.7,2.7s-0.9,1.5-1.6,2
				c-0.6,0.6-1.4,0.9-2.2,1.2c-0.8,0.2-1.7,0.4-2.7,0.2c-1-0.1-2-0.2-2.7-0.7c-0.8-0.3-1.5-0.9-2.1-1.5c-0.6-0.6-1.1-1.3-1.3-2.2
				c-0.2-0.8-0.5-1.7-0.4-2.7c0-0.9,0.2-1.7,0.6-2.4c0.3-0.8,0.8-1.4,1.5-1.9c0.6-0.5,1.4-0.9,2.2-1.2c0.8-0.2,1.7-0.4,2.9-0.4
				l0.7,0.1l-0.5,10.4c0.5,0,1-0.1,1.6-0.2c0.5-0.2,1-0.5,1.4-0.8c0.5-0.4,0.7-0.7,1-1.3c0.3-0.5,0.5-1,0.5-1.6c0-0.9,0-1.7-0.4-2.4
				c-0.2-0.6-0.7-1.2-1.4-1.7L-105.4,387.9z M-111,389.5c-1.2,0-2.1,0.4-2.8,0.9s-1,1.6-1.1,2.8c-0.1,1.2,0.2,2.2,0.8,3
				c0.6,0.8,1.4,1.3,2.6,1.4L-111,389.5z"/>
			<path class="st1" d="M-112.4,383c-0.6-0.1-1.2-0.2-1.6-0.2c-0.5-0.1-0.9-0.2-1.4-0.2l0.3-2c0.3,0,0.7,0.1,1,0.2
				c0.3,0,0.7,0.1,1,0.2l0-0.1c-0.3-0.2-0.6-0.5-0.8-0.8c-0.2-0.3-0.5-0.7-0.6-1c-0.1-0.3-0.2-0.8-0.2-1.4c0-0.6,0-1,0.1-1.5
				c0.1-0.8,0.5-1.6,0.8-2.1c0.3-0.6,0.8-1,1.4-1.3c0.6-0.4,1.2-0.5,1.9-0.6c0.6,0,1.4,0,2.2,0.1l7.9,1.6l-0.5,2.1l-7.7-1.5
				c-1-0.2-2-0.1-2.7,0.2s-1.2,1.1-1.3,2.1c-0.1,0.7-0.1,1.3,0,1.9c0.1,0.6,0.5,1,0.8,1.4c0.4,0.3,0.8,0.7,1.5,0.9
				c0.6,0.2,1.3,0.5,1.9,0.7l6.2,1.2l-0.5,2.1L-112.4,383z"/>
			<path class="st1" d="M-101.7,371l-6.7-10.2l-2.2,6.9l-1.7-0.6l3.1-9.7l1.5,0.5l6.7,10.2l2.4-7.4l1.7,0.6l-3.3,10.2L-101.7,371z"
				/>
			<path class="st1" d="M-112.6,352.4c-0.3-0.1-0.6-0.5-0.9-0.8c-0.1-0.3-0.2-0.8,0-1.3c0.2-0.5,0.5-0.7,0.8-0.9
				c0.3-0.1,0.8-0.2,1.3,0c0.5,0.2,0.7,0.5,0.9,0.8c0.1,0.3,0.1,0.8-0.1,1.2c-0.2,0.5-0.5,0.7-0.8,0.9
				C-111.8,352.6-112.2,352.6-112.6,352.4z M-107.7,353.9l0.9-2l12,4.9l-0.9,2L-107.7,353.9z"/>
			<path class="st1" d="M-90,342c0.5,1.2,0.7,2.2,0.7,3.2c-0.1,1-0.5,2.1-1,3.1c-0.5,0.9-1,1.6-1.7,2.2c-0.7,0.6-1.5,0.9-2.3,1.2
				c-0.8,0.2-1.6,0.2-2.6,0.1c-0.9-0.1-1.7-0.3-2.6-0.9c-0.8-0.5-1.6-1-2.2-1.7c-0.6-0.7-0.9-1.4-1.3-2.2c-0.2-0.8-0.2-1.6-0.2-2.6
				c0.1-0.8,0.3-1.7,0.8-2.6c0.3-0.8,0.9-1.5,1.6-2c0.6-0.6,1.4-0.9,2.1-1.2c0.8-0.2,1.6-0.2,2.4,0c0.8,0.1,1.7,0.5,2.7,0.9l0.6,0.3
				l-4.9,9.2c0.6,0.2,1,0.5,1.6,0.5s1.2,0,1.6-0.2c0.5-0.1,1-0.5,1.4-0.7c0.5-0.4,0.8-0.7,1.2-1.3c0.5-0.8,0.6-1.6,0.7-2.3
				c0-0.7-0.1-1.5-0.5-2.2L-90,342z M-95.6,341.1c-1-0.5-2-0.6-2.9-0.3s-1.6,1.1-2.2,2c-0.6,1-0.7,2.1-0.4,3.1
				c0.2,1,0.8,1.7,1.8,2.4L-95.6,341.1z"/>
			<path class="st1" d="M-92.4,316.4l1.5-1.6l20.2,6.7l-1.8,2.1l-5-1.7l-6.5,7.4l2.2,4.6l-1.7,2L-92.4,316.4z M-89.5,317.5
				L-89.5,317.5l4.5,9.4l5.3-6L-89.5,317.5z"/>
			<path class="st1" d="M-68.6,307.2c-0.7-0.1-1.4-0.1-2,0c-0.6,0.2-1.2,0.5-1.6,0.9c-0.6,0.5-1,0.9-1.3,1.5s-0.5,1-0.3,1.7
				c0,0.6,0.1,1.2,0.4,1.6c0.2,0.6,0.6,1.2,1.1,1.6c0.5,0.5,0.9,0.8,1.5,1.2c0.5,0.3,1.2,0.6,1.6,0.7c0.6,0.1,1.2,0,1.6,0
				c0.6-0.2,1.2-0.5,1.6-0.9c1-0.9,1.6-2,1.5-3.4l2.2,0.1c0,0.9-0.2,1.9-0.7,2.6c-0.5,0.8-1,1.5-1.7,2.1c-0.8,0.6-1.6,1.2-2.4,1.4
				c-0.8,0.2-1.6,0.4-2.6,0.2c-0.8-0.1-1.6-0.3-2.4-0.8c-0.8-0.3-1.5-1-2.2-1.7c-0.6-0.8-1.2-1.6-1.4-2.4c-0.2-0.8-0.4-1.6-0.4-2.6
				c0-0.9,0.2-1.6,0.7-2.4c0.3-0.8,1-1.5,1.7-2.2c0.8-0.6,1.5-1.1,2.4-1.4c0.8-0.2,1.9-0.5,2.8-0.2L-68.6,307.2z"/>
			<path class="st1" d="M-65.8,303.1c0.2-0.9,0.6-1.9,1.3-2.6c0.6-0.8,1.3-1.4,2.1-2c1.6-1.1,3-1.4,4.2-1.1s2.3,1.1,3.4,2.8l3,4.6
				c0.2,0.2,0.5,0.6,0.7,0.9c0.2,0.3,0.5,0.6,0.7,0.9l-1.7,1.2c-0.2-0.2-0.5-0.5-0.6-0.8c-0.2-0.2-0.4-0.6-0.5-0.8l0,0
				c0,0.8-0.2,1.5-0.6,2.3s-0.9,1.4-1.7,2c-0.6,0.4-1.2,0.7-1.7,0.7c-0.6,0.2-1.2,0.2-1.7,0.2c-0.5,0-1-0.2-1.5-0.5
				c-0.5-0.3-0.8-0.7-1.3-1.2c-0.6-0.9-0.8-1.7-0.6-2.5c0.1-0.8,0.5-1.5,1-2.3c0.6-0.7,1.2-1.4,2-1.9c0.8-0.6,1.4-1.1,2.1-1.5
				l0.7-0.5l-0.2-0.2c-0.5-0.8-1.2-1.3-1.9-1.4s-1.5,0.1-2.4,0.7c-0.6,0.4-1.2,0.8-1.6,1.4c-0.5,0.6-0.8,1.2-0.9,1.9L-65.8,303.1z
				 M-57.8,303.9c-1.2,0.8-2,1.5-2.4,2.3c-0.5,0.7-0.5,1.5,0,2.2c0.5,0.7,1.1,1,1.6,1c0.6,0,1.3-0.2,2-0.7c0.6-0.4,0.9-0.8,1.2-1.2
				c0.2-0.5,0.5-0.8,0.6-1.3c0.1-0.5,0-0.9,0-1.4c-0.1-0.5-0.4-0.9-0.6-1.4l-0.5-0.7L-57.8,303.9z"/>
			<path class="st1" d="M-39,298.4L-39,298.4c-0.1,0.8-0.5,1.6-1,2.6c-0.6,0.8-1.4,1.5-2.4,2c-0.8,0.4-1.6,0.6-2.5,0.7
				c-0.8,0.1-1.6-0.1-2.4-0.4c-0.8-0.3-1.5-0.8-2.1-1.4c-0.7-0.7-1.2-1.4-1.5-2.2c-0.4-0.8-0.6-1.7-0.7-2.7c0-0.9,0.1-1.7,0.3-2.6
				c0.3-0.8,0.7-1.5,1.4-2.2c0.7-0.7,1.4-1.2,2.3-1.6c0.8-0.4,1.7-0.6,2.6-0.5c0.9,0,1.7,0.2,2.6,0.6l0,0l-4.1-9l2-0.8l8.8,19
				l-2,0.8L-39,298.4z M-40.9,294.6c-0.2-0.6-0.7-1.2-1.2-1.6s-0.9-0.8-1.5-0.9c-0.6-0.2-1-0.3-1.7-0.2c-0.6,0-1.3,0.1-2,0.5
				c-0.6,0.2-1.2,0.7-1.6,1.2c-0.3,0.5-0.7,0.9-0.9,1.6c-0.2,0.6-0.2,1.2-0.2,1.7c0,0.6,0.2,1.3,0.5,1.9s0.7,1.2,1.2,1.6
				c0.5,0.5,0.9,0.8,1.5,0.9c0.6,0.2,1,0.3,1.7,0.2c0.6,0,1.3-0.1,2-0.5c0.6-0.2,1.2-0.7,1.6-1.2c0.3-0.5,0.7-0.9,0.9-1.6
				c0.2-0.6,0.2-1.2,0.2-1.7S-40.5,295.3-40.9,294.6z"/>
			<path class="st1" d="M-22.6,292.9c-0.5,1.2-1,2.1-1.8,2.8c-0.8,0.6-1.7,1.2-2.9,1.5c-0.9,0.4-1.9,0.4-2.8,0.2
				c-0.9-0.1-1.7-0.3-2.4-0.8c-0.8-0.3-1.3-1-1.9-1.6c-0.6-0.7-0.9-1.5-1.2-2.4c-0.2-0.9-0.4-1.9-0.4-2.8c0-0.9,0.2-1.7,0.7-2.4
				s0.9-1.4,1.6-2s1.5-0.9,2.4-1.2c0.8-0.2,1.6-0.4,2.6-0.2c0.8,0.1,1.6,0.3,2.3,0.7c0.7,0.3,1.3,0.9,1.9,1.6
				c0.6,0.7,0.9,1.6,1.2,2.7l0.1,0.7l-10.1,3.1c0.2,0.5,0.5,1,0.8,1.5c0.4,0.5,0.8,0.7,1.3,1c0.5,0.3,0.9,0.3,1.5,0.5s1.2,0,1.7-0.1
				c0.9-0.2,1.6-0.7,2.1-1.2c0.5-0.5,0.9-1.2,1.3-1.9L-22.6,292.9z M-26,288.4c-0.4-1-0.9-1.9-1.8-2.2c-0.8-0.5-1.9-0.6-3-0.1
				c-1.2,0.4-2,0.9-2.5,1.8c-0.6,0.8-0.7,1.9-0.6,2.9L-26,288.4z"/>
			<path class="st1" d="M-20.2,284.4c-0.1-0.6-0.1-1.2-0.2-1.6c-0.1-0.6-0.1-0.9-0.1-1.4l2.1-0.2c0.1,0.3,0.1,0.7,0.1,1
				c0.1,0.3,0.1,0.7,0.2,1l0.1,0c0.1-0.3,0.2-0.6,0.5-1c0.2-0.3,0.6-0.6,0.8-0.9c0.2-0.3,0.7-0.6,1.2-0.7c0.5-0.2,0.9-0.4,1.5-0.4
				c0.7,0,1.3-0.1,1.9,0.1c0.5,0.1,0.9,0.2,1.3,0.5c0.3,0.2,0.6,0.5,0.8,0.7c0.2,0.2,0.5,0.5,0.6,0.7c0.5-0.8,0.9-1.5,1.4-2
				c0.6-0.5,1.4-0.8,2.3-0.9c0.9-0.1,1.6,0,2.3,0.1c0.7,0.1,1.3,0.5,1.6,0.9c0.5,0.3,0.8,0.9,1.1,1.6c0.2,0.6,0.4,1.4,0.5,2.2l1,7.8
				l-2.2,0.2l-0.9-7.7c0-0.5-0.1-0.9-0.4-1.3c-0.1-0.3-0.4-0.7-0.6-1c-0.2-0.3-0.6-0.6-1-0.7c-0.5-0.2-0.9-0.2-1.6-0.1
				c-0.5,0-0.9,0.1-1.3,0.5c-0.3,0.2-0.7,0.6-0.9,0.8c-0.2,0.5-0.5,0.8-0.6,1.3c-0.1,0.5-0.2,1-0.1,1.6l0.9,7.4l-2.2,0.2l-0.9-7.3
				c-0.1-1.4-0.5-2.4-0.9-3c-0.5-0.6-1.2-0.8-2-0.7c-0.7,0-1.4,0.2-1.7,0.6c-0.6,0.4-0.9,0.7-1.2,1.2c-0.3,0.5-0.5,1-0.6,1.6
				c0,0.6-0.1,1.3,0,2.1l0.7,6.3l-2.2,0.2L-20.2,284.4z"/>
			<path class="st1" d="M8.3,295.5c-0.2,0.6-0.5,1-0.8,1.4c-0.2,0.5-0.6,0.8-0.8,1c-0.3,0.2-0.7,0.6-1.2,0.7c-0.5,0.1-1,0.2-1.7,0.1
				c-0.3,0-0.6,0-1-0.1c-0.5-0.1-0.7-0.1-0.9-0.3l0.3-1.9c0.2,0.1,0.5,0.2,0.7,0.2c0.2,0,0.5,0.1,0.8,0.1c0.7,0.1,1.3-0.1,1.6-0.5
				c0.3-0.4,0.7-0.8,0.9-1.5l1-2.3l-4.7-13.3l2.4,0.1l3.5,10.3l0.1,0l4.4-9.9l2.3,0.1L8.3,295.5z"/>
			<path class="st1" d="M24.6,286.7l6.6,1.5l-0.5,2l-6.6-1.5L24.6,286.7z"/>
		</g>
	</g>
</g>
<polyline id="_x3C_Slice_x3E_" class="st2" points="-260.1,535.9 -260.1,531 -15.1,531 -15.1,773 -260.1,773 -260.1,535.9 "/>
</svg>
